<svg xmlns="http://www.w3.org/2000/svg" data-name="Layer 1" viewBox="0 0 128 128"><circle cx="64" cy="64" r="58" fill="#f8dc25"/><path fill="#f2bc0f" d="M53,107A71.65,71.65,0,0,1,16.25,96.91,58,58,0,0,0,121.56,57,72,72,0,0,1,53,107Z" opacity=".7"/><path fill="none" stroke="#393c54" stroke-linecap="round" stroke-miterlimit="10" stroke-width="4" d="M24.94 69.47a9.94 9.94 0 1119.88 0M83.18 69.47a9.94 9.94 0 1119.88 0"/><line x1="83" x2="99" y1="44" y2="48" fill="none" stroke="#f2bc0f" stroke-linecap="round" stroke-linejoin="round" stroke-width="4" opacity=".5"/><line x1="29" x2="45" y1="48" y2="44" fill="none" stroke="#f2bc0f" stroke-linecap="round" stroke-linejoin="round" stroke-width="4" opacity=".5"/><ellipse cx="28.63" cy="82.03" fill="#f85565" opacity=".7" rx="12" ry="6.73"/><ellipse cx="99.67" cy="82.03" fill="#f85565" opacity=".7" rx="12" ry="6.73"/><path fill="none" stroke="#393c54" stroke-linecap="round" stroke-miterlimit="10" stroke-width="4" d="M83 91.22a38 38 0 01-38 0M82.5 89a9.79 9.79 0 005 5M45.5 89a9.79 9.79 0 01-5 5"/></svg>